<svg width="1200" height="760" viewBox="0 0 1200 760" fill="none" xmlns="http://www.w3.org/2000/svg" role="img" aria-labelledby="title desc">
  <title id="title">Orbin settings screenshot</title>
  <desc id="desc">A screenshot-style view of the Orbin Android settings screen showing content, appearance, media, network, privacy, and storage preferences.</desc>
  <rect width="1200" height="760" fill="#F6F7FB"/>
  <rect x="412" y="42" width="376" height="676" rx="36" fill="#15161B"/>
  <rect x="424" y="56" width="352" height="648" rx="28" fill="#FAFBFF"/>
  <rect x="424" y="56" width="352" height="92" rx="28" fill="#EDF1FF"/>
  <circle cx="454" cy="102" r="18" fill="#D9E2FF"/>
  <path d="M459 94L451 102L459 110" stroke="#27304D" stroke-width="3" stroke-linecap="round" stroke-linejoin="round"/>
  <text x="492" y="110" font-family="Inter, Arial, sans-serif" font-size="24" font-weight="700" fill="#1D2233">Settings</text>
  <text x="448" y="178" font-family="Inter, Arial, sans-serif" font-size="13" font-weight="700" fill="#3157B8">CONTENT</text>
  <rect x="448" y="194" width="304" height="52" rx="12" fill="#FFFFFF"/>
  <text x="464" y="217" font-family="Inter, Arial, sans-serif" font-size="15" font-weight="700" fill="#202431">Subscriptions</text>
  <text x="464" y="236" font-family="Inter, Arial, sans-serif" font-size="12" fill="#6B7180">Manage subscribed boards</text>
  <rect x="448" y="254" width="304" height="52" rx="12" fill="#FFFFFF"/>
  <text x="464" y="277" font-family="Inter, Arial, sans-serif" font-size="15" font-weight="700" fill="#202431">Run setup again</text>
  <text x="464" y="296" font-family="Inter, Arial, sans-serif" font-size="12" fill="#6B7180">Subscriptions, preferences, and privacy</text>
  <rect x="704" y="270" width="34" height="20" rx="10" fill="#CCD3E0"/>
  <circle cx="714" cy="280" r="8" fill="#FFFFFF"/>
  <text x="448" y="336" font-family="Inter, Arial, sans-serif" font-size="13" font-weight="700" fill="#3157B8">APPEARANCE</text>
  <text x="464" y="372" font-family="Inter, Arial, sans-serif" font-size="15" font-weight="700" fill="#202431">Theme</text>
  <rect x="464" y="388" width="62" height="28" rx="14" fill="#DCE6FF"/>
  <text x="481" y="407" font-family="Inter, Arial, sans-serif" font-size="12" font-weight="700" fill="#274B9F">System</text>
  <rect x="534" y="388" width="50" height="28" rx="14" fill="#FFFFFF" stroke="#D7DCE7"/>
  <text x="548" y="407" font-family="Inter, Arial, sans-serif" font-size="12" fill="#434958">Light</text>
  <rect x="592" y="388" width="48" height="28" rx="14" fill="#FFFFFF" stroke="#D7DCE7"/>
  <text x="606" y="407" font-family="Inter, Arial, sans-serif" font-size="12" fill="#434958">Dark</text>
  <rect x="448" y="432" width="304" height="48" rx="12" fill="#FFFFFF"/>
  <text x="464" y="462" font-family="Inter, Arial, sans-serif" font-size="15" font-weight="700" fill="#202431">Dynamic color</text>
  <rect x="704" y="446" width="34" height="20" rx="10" fill="#3157B8"/>
  <circle cx="728" cy="456" r="8" fill="#FFFFFF"/>
  <text x="448" y="510" font-family="Inter, Arial, sans-serif" font-size="13" font-weight="700" fill="#3157B8">MEDIA</text>
  <rect x="448" y="526" width="304" height="48" rx="12" fill="#FFFFFF"/>
  <text x="464" y="556" font-family="Inter, Arial, sans-serif" font-size="15" font-weight="700" fill="#202431">Autoplay videos</text>
  <rect x="704" y="540" width="34" height="20" rx="10" fill="#CCD3E0"/>
  <circle cx="714" cy="550" r="8" fill="#FFFFFF"/>
  <text x="464" y="603" font-family="Inter, Arial, sans-serif" font-size="15" font-weight="700" fill="#202431">Threads per board</text>
  <rect x="464" y="620" width="42" height="28" rx="14" fill="#FFFFFF" stroke="#D7DCE7"/>
  <text x="481" y="639" font-family="Inter, Arial, sans-serif" font-size="12" fill="#434958">6</text>
  <rect x="514" y="620" width="48" height="28" rx="14" fill="#DCE6FF"/>
  <text x="531" y="639" font-family="Inter, Arial, sans-serif" font-size="12" font-weight="700" fill="#274B9F">12</text>
  <rect x="570" y="620" width="48" height="28" rx="14" fill="#FFFFFF" stroke="#D7DCE7"/>
  <text x="587" y="639" font-family="Inter, Arial, sans-serif" font-size="12" fill="#434958">18</text>
  <rect x="626" y="620" width="52" height="28" rx="14" fill="#FFFFFF" stroke="#D7DCE7"/>
  <text x="643" y="639" font-family="Inter, Arial, sans-serif" font-size="12" fill="#434958">All</text>
  <rect x="824" y="128" width="210" height="132" rx="24" fill="#FFFFFF"/>
  <text x="850" y="164" font-family="Inter, Arial, sans-serif" font-size="18" font-weight="800" fill="#202431">Network privacy</text>
  <text x="850" y="194" font-family="Inter, Arial, sans-serif" font-size="13" fill="#596171">DNS-over-HTTPS provider</text>
  <rect x="850" y="212" width="82" height="28" rx="14" fill="#DCE6FF"/>
  <text x="867" y="231" font-family="Inter, Arial, sans-serif" font-size="12" font-weight="700" fill="#274B9F">NextDNS</text>
  <rect x="824" y="286" width="210" height="132" rx="24" fill="#FFFFFF"/>
  <text x="850" y="322" font-family="Inter, Arial, sans-serif" font-size="18" font-weight="800" fill="#202431">Storage</text>
  <text x="850" y="352" font-family="Inter, Arial, sans-serif" font-size="13" fill="#596171">Saved media folder picker</text>
  <rect x="850" y="370" width="132" height="28" rx="14" fill="#E8F6EF"/>
  <text x="867" y="389" font-family="Inter, Arial, sans-serif" font-size="12" font-weight="700" fill="#226642">Downloads/Orbin</text>
  <rect x="166" y="152" width="198" height="354" rx="28" fill="#FFFFFF"/>
  <text x="196" y="198" font-family="Inter, Arial, sans-serif" font-size="28" font-weight="900" fill="#202431">Orbin</text>
  <text x="196" y="228" font-family="Inter, Arial, sans-serif" font-size="15" fill="#596171">Modern image board client</text>
  <rect x="196" y="266" width="138" height="34" rx="17" fill="#DCE6FF"/>
  <text x="216" y="288" font-family="Inter, Arial, sans-serif" font-size="13" font-weight="800" fill="#274B9F">Version 23.9</text>
  <rect x="196" y="328" width="138" height="12" rx="6" fill="#E5E9F2"/>
  <rect x="196" y="352" width="106" height="12" rx="6" fill="#E5E9F2"/>
  <rect x="196" y="376" width="148" height="12" rx="6" fill="#E5E9F2"/>
  <text x="196" y="448" font-family="Inter, Arial, sans-serif" font-size="14" font-weight="700" fill="#3157B8">Thule release</text>
</svg>
